PathFileType	4	(X/Y/Z)	S01_0005_Gait_markers.trc
DataRate	CameraRate	NumFrames	NumMarkers	Units	OrigDataRate	OrigDataStartFrame	OrigNumFrames
250.000000	250.000000	4	54	mm	250.000000	121	324
Frame#	Time	HEAD_ANT			R_HEAD			L_HEAD			C7			R_BACK			L_BACK			STERNUM			R_ACROMION			R_HUM_PROX			R_HUM_ANT			R_HUM_POST			R_ELBOW_LAT			R_ELBOW_MED			R_FOREARM			R_WIRST_LAT			R_WRITS_MED			R_HAND			L_ACROMION			L_HUM_PROX			L_HUM_ANT			L_HUM_POST			L_ELBOW_LAT			L_ELBOW_MED			L_FOREARM			L_WRIST_LAT			L_WIRST_MED			L_HAND			R_ILIAC			SACRUM			L_ILIAC			R_GTROCH			R_THIGH__1			R_THIGH_2			R_THIGH_3			R_THIGH_4			R_SHANK_1			R_SHANK_2			R_SHANK_3			R_SHANK_4			R_HEEL			R_FOOT_LAT			R_FOOT_MED			L_GTROCH			L_THIGH_1			L_THIGH_2			L_THIGH_3			L_THIGH_4			L_SHANK_1			L_SHANK_2			L_SHANK_3			L_SHANK_4			L_HEEL			L_FOOT_LAT			L_FOOT_MED			
		X1	Y1	Z1	X2	Y2	Z2	X3	Y3	Z3	X4	Y4	Z4	X5	Y5	Z5	X6	Y6	Z6	X7	Y7	Z7	X8	Y8	Z8	X9	Y9	Z9	X10	Y10	Z10	X11	Y11	Z11	X12	Y12	Z12	X13	Y13	Z13	X14	Y14	Z14	X15	Y15	Z15	X16	Y16	Z16	X17	Y17	Z17	X18	Y18	Z18	X19	Y19	Z19	X20	Y20	Z20	X21	Y21	Z21	X22	Y22	Z22	X23	Y23	Z23	X24	Y24	Z24	X25	Y25	Z25	X26	Y26	Z26	X27	Y27	Z27	X28	Y28	Z28	X29	Y29	Z29	X30	Y30	Z30	X31	Y31	Z31	X32	Y32	Z32	X33	Y33	Z33	X34	Y34	Z34	X35	Y35	Z35	X36	Y36	Z36	X37	Y37	Z37	X38	Y38	Z38	X39	Y39	Z39	X40	Y40	Z40	X41	Y41	Z41	X42	Y42	Z42	X43	Y43	Z43	X44	Y44	Z44	X45	Y45	Z45	X46	Y46	Z46	X47	Y47	Z47	X48	Y48	Z48	X49	Y49	Z49	X50	Y50	Z50	X51	Y51	Z51	X52	Y52	Z52	X53	Y53	Z53	X54	Y54	Z54	

122	0.484	856.3751220703125	1739.325805664062	-294.7268066406246	799.2999267578125	1685.213134765625	-218.7721252441403	799.896240234375	1693.222412109375	-367.7893676757809	662.3213500976562	1519.9052734375	-297.2486572265622	589.891845703125	1326.1630859375	-225.8293151855466	584.5018310546875	1328.43310546875	-367.8241577148435	835.733154296875	1353.659912109375	-302.1018066406247	745.7544555664062	1468.680908203125	-128.73908996582	730.7605590820312	1308.423583984375	-35.0661964416501	798.5459594726562	1227.617797851562	-46.97147750854465	681.8993530273438	1220.525146484375	-11.66546535491916	741.6358642578125	1118.741943359375	-17.48182868957495	695.4786987304688	1111.792114257812	-88.96945190429663	883.4915771484375	972.468994140625	-74.04265594482401	924.0565185546875	927.5323486328125	-130.947555541992	882.6859130859375	878.6520385742188	-81.4482421874998	976.16943359375	846.0985717773438	-91.08806610107403	737.1300659179688	1475.614379882812	-467.447845458984	697.7188110351562	1314.004760742188	-566.9103393554684	755.6840209960938	1229.905151367188	-576.5069580078123	632.4296875	1241.3134765625	-590.5401611328123	685.1871948242188	1133.762939453125	-607.2482910156248	638.6123657226562	1128.537963867188	-546.0422363281248	783.66162109375	955.5872192382814	-608.559875488281	820.1642456054688	891.5828247070314	-562.4450073242185	767.1918334960938	874.4364624023439	-622.2923583984373	840.8391723632812	812.6491088867189	-614.2643432617185	727.3738403320312	1071.051635742188	-130.5541229248045	601.9578247070312	1044.518798828125	-305.6500244140623	724.6302490234375	1066.88427734375	-477.261779785156	667.6045532226562	934.9950561523438	-122.4910736083982	632.662109375	665.05078125	-147.6719818115233	691.119140625	666.6783447265625	-141.9273529052733	671.6585693359375	566.9998779296875	-178.2580566406249	611.9429931640625	589.5023803710938	-169.4401550292967	534.99462890625	362.6080322265626	-178.3915100097655	585.5830688476562	332.0660095214844	-191.9055786132812	565.6709594726562	250.9667053222657	-214.8484497070312	504.7265319824219	269.5878906250001	-206.2232818603515	429.6190795898438	76.32969665527351	-302.5311889648438	578.4603881835938	19.77021598815923	-207.3501739501953	644.4049682617188	29.83121871948249	-303.8201904296875	705.5487670898438	952.0347290039064	-485.8595886230466	888.6051025390625	701.0963134765626	-478.6613769531248	831.671875	700.3008422851564	-496.8896179199217	856.12255859375	600.9428100585939	-470.7705078124999	912.5572509765625	623.6860961914064	-457.1211547851561	920.4229125976562	347.5074157714845	-463.0909118652343	865.075927734375	321.0037841796876	-462.3397216796874	872.5928955078125	234.4389801025391	-446.7116394042968	935.053955078125	247.4262237548829	-444.6838378906249	860.0217895507812	41.89118576049813	-376.4604797363281	1031.0703125	39.60878372192393	-456.5320739746094	1070.948852539062	57.8286666870118	-366.3834228515625	
123	0.488	861.9899291992188	1738.40673828125	-295.2197570800777	804.8115844726562	1683.933715820312	-219.4187469482418	805.4375610351562	1692.285278320312	-368.4259948730465	667.8963623046875	1519.141357421875	-297.4050598144528	595.4423828125	1325.276123046875	-225.7707061767575	589.8633422851562	1327.615844726562	-367.8322753906247	841.739990234375	1352.436279296875	-304.2277832031247	751.876708984375	1467.6650390625	-129.0926666259762	736.8912963867188	1307.549194335938	-35.30112075805635	804.791748046875	1226.6142578125	-47.5755424499509	688.2398681640625	1219.312133789062	-11.73457431793186	747.8856811523438	1117.711181640625	-17.56529235839819	701.7030029296875	1110.848999023438	-89.13988494873023	889.8209228515625	971.6261596679688	-74.30991363525369	930.2073364257812	926.6063232421875	-131.4073791503904	889.0647583007812	877.7364501953125	-81.82733917236308	982.7489013671875	845.3099365234375	-91.74580383300763	742.555908203125	1474.210327148438	-467.8283386230465	702.8555908203125	1312.732421875	-567.0656127929684	761.0363159179688	1228.548950195313	-576.8363037109373	637.46533203125	1239.783325195313	-590.2890624999998	690.521484375	1132.299072265625	-607.1423339843748	643.54345703125	1127.29833984375	-545.994689941406	788.574462890625	954.0739135742189	-608.8651123046873	825.04150390625	890.1746826171876	-562.6363525390623	772.1201782226562	872.9971313476564	-622.5341186523435	845.5672607421875	811.2828979492189	-614.5678710937498	731.989501953125	1069.973266601562	-129.9967193603513	607.4068603515625	1043.433349609375	-306.0516967773435	730.1102905273438	1065.634887695312	-477.3991394042966	672.5830078125	934.4494018554688	-122.442802429199	636.1954956054688	664.7589111328125	-148.0377807617186	694.8418579101562	666.5088500976562	-141.7455902099608	674.9118041992188	566.5407104492188	-178.3673553466796	615.3446655273438	589.556396484375	-169.5550384521483	537.0763549804688	362.9039611816407	-178.5451354980468	587.5194091796875	332.0763549804688	-192.0152130126952	567.0670776367188	251.0809783935547	-214.9800109863281	506.1826477050781	270.0851135253907	-206.408462524414	429.9590148925781	77.15954589843757	-302.7546691894531	578.3381958007812	19.76951217651372	-207.4521331787109	644.44970703125	29.791151046753	-303.7712097167969	711.148681640625	950.6623535156251	-485.8875427246091	893.147705078125	699.5668334960939	-478.6242065429686	836.4561767578125	698.6866455078126	-496.9457092285155	860.861572265625	599.2522583007814	-470.7493591308593	917.3944091796875	621.8845214843751	-456.4019470214843	930.0360107421875	346.9634399414064	-462.4574584960937	875.3619384765625	319.4894104003907	-461.9667053222656	884.427734375	232.9859008789063	-446.1952819824218	946.8077392578125	247.315170288086	-443.9331054687499	876.2741088867188	40.18569946289071	-375.4855346679688	1047.410522460938	41.43379974365244	-456.6156311035156	1087.402099609375	60.48202896118172	-366.5654602050781	
124	0.492	867.7455444335938	1737.459106445312	-295.810150146484	810.3812255859375	1683.044311523438	-220.0771179199215	811.1083984375	1691.088134765625	-368.846282958984	673.6914672851562	1518.124267578125	-297.596527099609	601.0307006835938	1324.510864257812	-225.6424255371091	595.15673828125	1326.75537109375	-367.8380126953122	846.9024047851562	1351.167236328125	-302.9024353027341	758.0420532226562	1466.6455078125	-129.4440002441403	743.2276611328125	1306.579956054688	-35.75373458862276	811.0398559570312	1225.674438476562	-48.02418899536106	694.7145385742188	1218.288940429688	-11.93975067138645	754.1905517578125	1116.786743164062	-17.64693260192846	707.8627319335938	1109.653564453125	-89.13883972167945	896.0963134765625	970.6465454101562	-74.58168792724588	936.389892578125	925.7439575195312	-131.8710937499998	895.6517944335938	876.766845703125	-82.12541198730449	989.218505859375	844.6515502929688	-92.12117004394513	747.9735107421875	1473.031005859375	-468.054290771484	708.3851318359375	1311.460815429688	-567.2039794921872	766.2008056640625	1227.364868164063	-577.2000732421873	642.5153198242188	1238.581298828125	-590.2424316406248	695.5870971679688	1130.9541015625	-607.013000488281	648.7982177734375	1125.844116210938	-545.7441406249998	794.12353515625	952.3940429687501	-609.0400390624998	830.3359985351562	888.7086181640626	-562.9556884765623	776.9388427734375	871.7963867187501	-622.6510620117185	850.5956420898438	809.9298706054689	-614.8188476562498	737.4373168945312	1068.95556640625	-130.2249603271482	612.7669677734375	1042.141357421875	-306.3768615722654	735.1694946289062	1064.466186523438	-477.7510681152341	677.51611328125	933.9028930664062	-122.5002746582029	639.979736328125	664.66162109375	-148.3640899658202	698.4837646484375	665.847900390625	-142.0079345703124	678.2969970703125	566.2969970703125	-178.3285369873046	618.8026733398438	589.1720581054688	-169.7892456054686	539.2982788085938	363.1232910156251	-178.801284790039	589.5782470703125	331.9739074707032	-192.1610870361327	568.6251220703125	251.1531524658204	-215.1419677734374	507.8022155761719	270.4650573730469	-206.5592346191406	430.2680053710938	78.14015960693366	-302.9203796386719	577.8643188476562	19.83020973205571	-208.0325164794922	644.4954223632812	29.83392333984382	-303.7225646972656	716.9085693359375	949.2739868164064	-485.894836425781	897.9069213867188	697.8125610351564	-478.881622314453	841.200927734375	696.9353027343751	-496.5645141601561	865.4093627929688	597.8877563476564	-469.9781799316405	921.984130859375	620.1998901367189	-456.2804565429686	939.2750854492188	346.6043090820314	-462.0774536132812	885.2628784179688	317.9327087402345	-461.5808105468749	896.3743286132812	231.6968383789063	-446.0624389648437	958.175537109375	247.3768157958985	-444.1141967773437	892.6617431640625	39.07408905029305	-374.6486511230469	1063.475219726562	43.3022346496583	-456.4882202148438	1103.265747070312	63.24377441406258	-366.5599670410156	
125	0.496	873.2581176757812	1736.369873046875	-296.5631713867184	816.0610961914062	1681.96337890625	-220.5549011230465	816.8444213867188	1689.958984375	-369.4059143066402	679.3893432617188	1517.086181640625	-297.9832763671872	606.4495849609375	1323.756103515625	-225.7658843994138	600.3861694335938	1325.851196289062	-367.9202880859372	852.4994506835938	1349.873291015625	-303.3531494140622	764.1359252929688	1465.528442382812	-129.8690795898434	749.468017578125	1305.532592773438	-36.03672790527315	817.3304443359375	1224.721435546875	-48.59926986694309	701.1202392578125	1217.266479492188	-12.13796806335422	760.6709594726562	1115.788330078125	-18.17884254455542	713.6549682617188	1108.465576171875	-88.99282073974585	902.43798828125	969.7075805664062	-75.31527709960916	942.4762573242188	924.7291259765625	-132.3034210205076	901.9652099609375	875.8131713867188	-82.34581756591777	995.5634765625	843.9275512695312	-92.52809143066388	753.5057983398438	1471.741455078125	-468.5399169921872	713.5864868164062	1310.055541992188	-567.3804321289059	771.052734375	1226.3876953125	-577.422424316406	647.68603515625	1237.234985351563	-590.1593017578123	700.6051025390625	1129.702026367188	-606.926330566406	654.501708984375	1124.323974609375	-545.6049804687498	798.91064453125	951.0456542968751	-609.3895263671873	835.2021484375	887.3625488281251	-563.090881347656	781.9087524414062	870.2595825195314	-622.629455566406	855.4265747070312	808.2514038085939	-615.181945800781	743.3935546875	1067.9140625	-131.2982025146482	618.1408081054688	1041.132446289062	-306.613098144531	740.64794921875	1063.226684570312	-478.0754394531248	682.479736328125	933.6072387695312	-122.4206924438474	643.810546875	664.2715454101562	-148.7470703124999	702.2924194335938	665.537109375	-141.9332122802733	681.8140869140625	565.9575805664062	-178.3675994873046	622.30859375	589.0748901367188	-170.1207580566405	541.5636596679688	363.3137207031251	-178.8776550292968	591.6591186523438	331.8378601074219	-192.2555541992187	570.14697265625	251.1678924560547	-215.2833099365234	509.5399475097656	270.8657836914063	-206.6502380371093	430.5403747558594	79.01837921142585	-303.0604248046875	577.9163818359375	19.89129829406743	-207.8387908935547	644.5250244140625	29.77411270141608	-303.7326049804688	722.423583984375	947.8833618164064	-486.1027221679685	902.7979125976562	696.0534057617189	-478.7846679687498	845.8447875976562	695.0748901367189	-496.5564575195311	869.6461791992188	595.7503051757814	-469.1622009277343	926.5612182617188	618.1937255859376	-455.967315673828	948.4605712890625	346.2400512695314	-461.6688232421874	894.9664306640625	316.4476623535157	-461.1982727050781	907.6665649414062	230.9936676025391	-446.1518859863281	969.5404052734375	247.5869445800782	-443.4916687011718	908.51708984375	37.84609603881844	-374.4325561523438	1079.120727539062	45.39657974243174	-456.5908508300781	1118.8505859375	66.12220764160165	-366.5492858886719	
